<svg width="100" height="100" viewBox="0 0 100 100" fill="none" xmlns="http://www.w3.org/2000/svg">
<rect width="100" height="100" rx="30" fill="white"/>
<rect width="100" height="100" rx="30" fill="url(#paint0_linear_14_25)"/>
<mask id="mask0_14_25" style="mask-type:alpha" maskUnits="userSpaceOnUse" x="22" y="18" width="56" height="62">
<path d="M77.3438 18.7396H22.6562V79.9896H77.3438V18.7396Z" fill="white"/>
<path fill-rule="evenodd" clip-rule="evenodd" d="M52.6275 20.5289C51.003 19.6015 49.0014 19.6015 47.3769 20.5289L26.3785 32.5169C24.7546 33.4439 23.7543 35.157 23.7543 37.0109V60.9891C23.7543 61.1902 23.766 61.3896 23.7891 61.5864L23.75 61.6456C23.75 63.092 24.5253 64.4272 25.7814 65.1444L47.3769 77.4711C49.0014 78.3985 51.003 78.3985 52.6275 77.4711L73.6258 65.4831C75.2498 64.556 76.2501 62.8429 76.2501 60.9891V37.0109C76.2501 35.157 75.2498 33.4439 73.6258 32.5169L52.6275 20.5289ZM50 36.6312L31.9531 64.4028L33.0469 65.1444L51.3541 36.6312H59.8628L40.4297 69.0872L49.211 74.1019C49.7525 74.4111 50.4199 74.4111 50.9615 74.1019L58.3485 69.8834L49.122 56.2092L54.9219 46.2656L66.9531 65.1444L67.9454 64.4028L55.5528 45.376L59.8837 38.197L72.6157 57.0866V60.7374V37.0025C72.6157 36.3847 72.2823 35.8138 71.7411 35.5047L50.9615 23.6381C50.4199 23.3288 49.7525 23.3288 49.211 23.6381L28.4314 35.5047C27.8902 35.8138 27.5568 36.3847 27.5568 37.0025V55.8871L37.8258 40.353C39.3609 38.0309 41.9776 36.6312 44.7837 36.6312H50Z" fill="black"/>
</mask>
<g mask="url(#mask0_14_25)">
<path fill-rule="evenodd" clip-rule="evenodd" d="M52.6275 20.5289C51.003 19.6015 49.0014 19.6015 47.3769 20.5289L26.3785 32.5169C24.7546 33.4439 23.7543 35.157 23.7543 37.0109V60.9891C23.7543 61.1902 23.766 61.3896 23.7891 61.5864L23.75 61.6456C23.75 63.092 24.5253 64.4272 25.7814 65.1444L47.3769 77.4711C49.0014 78.3985 51.003 78.3985 52.6275 77.4711L73.6258 65.4831C75.2498 64.556 76.2501 62.8429 76.2501 60.9891V37.0109C76.2501 35.157 75.2498 33.4439 73.6258 32.5169L52.6275 20.5289ZM50 36.6312L31.9531 64.4028L33.0469 65.1444L51.3541 36.6312H59.8628L40.4297 69.0872L49.211 74.1019C49.7525 74.4111 50.4199 74.4111 50.9615 74.1019L58.3485 69.8834L49.122 56.2092L54.9219 46.2656L66.9531 65.1444L67.9454 64.4028L55.5528 45.376L59.8837 38.197L72.6157 57.0866V60.7374V37.0025C72.6157 36.3847 72.2823 35.8138 71.7411 35.5047L50.9615 23.6381C50.4199 23.3288 49.7525 23.3288 49.211 23.6381L28.4314 35.5047C27.8902 35.8138 27.5568 36.3847 27.5568 37.0025V55.8871L37.8258 40.353C39.3609 38.0309 41.9776 36.6312 44.7837 36.6312H50Z" fill="white"/>
</g>
<defs>
<linearGradient id="paint0_linear_14_25" x1="15" y1="94" x2="90.5" y2="1.99998" gradientUnits="userSpaceOnUse">
<stop stop-color="#3718C9"/>
<stop offset="0.33125" stop-color="#DA37D5"/>
<stop offset="1" stop-color="#FFD77B"/>
</linearGradient>
</defs>
</svg>
