<svg width="100" height="100" viewBox="0 0 100 100" fill="none" xmlns="http://www.w3.org/2000/svg">
<rect width="100" height="100" rx="30" fill="url(#paint0_linear_14_36)"/>
<mask id="mask0_14_36" style="mask-type:alpha" maskUnits="userSpaceOnUse" x="21" y="30" width="59" height="40">
<path d="M79.5312 30.3125H21.5625V69.6875H79.5312V30.3125Z" fill="white"/>
<path d="M49.2888 63.3522C48.1178 65.1077 46.48 66.4243 44.3753 67.302C42.2865 68.1632 39.8496 68.5938 37.0644 68.5938C34.2477 68.5938 31.7474 67.9064 29.5636 66.5319C27.3798 65.1408 25.6866 63.1701 24.484 60.6197C23.2971 58.0693 22.6879 55.1132 22.6562 51.7513V48.5965C22.6562 43.1479 23.8668 38.9249 26.2879 35.9274C28.7249 32.9299 32.143 31.4311 36.5422 31.4311C40.1502 31.4311 43.054 32.3999 45.2536 34.3375C47.4532 36.2586 48.7983 38.9912 49.2888 42.5352H44.7314C43.8769 37.7491 41.1551 35.356 36.5659 35.356C33.5118 35.356 31.1935 36.4821 29.6111 38.7345C28.0445 40.9702 27.2533 44.2162 27.2374 48.4723V51.4283C27.2374 55.4858 28.1236 58.7152 29.8959 61.1166C31.6683 63.5013 34.0657 64.6937 37.0882 64.6937C38.7972 64.6937 40.2926 64.4949 41.5744 64.0975C42.8562 63.7 43.9165 63.0293 44.7551 62.0853V53.9622H36.7559V50.087H49.2888V63.3522Z" fill="black"/>
<path d="M55.0569 54.4093C55.0569 51.7761 55.5474 49.408 56.5285 47.3047C57.5254 45.2015 58.9021 43.5785 60.6587 42.4358C62.431 41.2931 64.4487 40.7217 66.7115 40.7217C70.2088 40.7217 73.0334 41.9887 75.1856 44.5225C77.3535 47.0563 78.4375 50.4265 78.4375 54.6329V54.9559C78.4375 57.5725 77.9548 59.9241 76.9896 62.0108C76.0401 64.0809 74.6713 65.6956 72.8831 66.8549C71.1108 68.0141 69.0694 68.5938 66.759 68.5938C63.2777 68.5938 60.453 67.3269 58.2851 64.793C56.1329 62.2592 55.0569 58.9056 55.0569 54.7323V54.4093ZM59.4719 54.9559C59.4719 57.9368 60.1286 60.3298 61.4421 62.135C62.7713 63.9402 64.5436 64.8427 66.759 64.8427C68.9902 64.8427 70.7627 63.9319 72.076 62.1101C73.3895 60.2718 74.0462 57.7049 74.0462 54.4093C74.0462 51.4615 73.3737 49.0768 72.0286 47.255C70.6993 45.4167 68.927 44.4977 66.7115 44.4977C64.5436 44.4977 62.795 45.4002 61.4658 47.2054C60.1366 49.0105 59.4719 51.594 59.4719 54.9559ZM58.9021 34.0395C58.9021 33.2942 59.1159 32.6731 59.5431 32.1764C59.9862 31.663 60.635 31.4062 61.4895 31.4062C62.3441 31.4062 62.9928 31.663 63.436 32.1764C63.879 32.6731 64.1005 33.2942 64.1005 34.0395C64.1005 34.7846 63.879 35.4057 63.436 35.9025C62.9928 36.3993 62.3441 36.6478 61.4895 36.6478C60.635 36.6478 59.9862 36.3993 59.5431 35.9025C59.1159 35.4057 58.9021 34.7846 58.9021 34.0395ZM69.109 34.0891C69.109 33.3438 69.3226 32.7146 69.7499 32.2012C70.1929 31.6878 70.8417 31.4311 71.6963 31.4311C72.5508 31.4311 73.1996 31.6878 73.6427 32.2012C74.0858 32.7146 74.3073 33.3438 74.3073 34.0891C74.3073 34.8344 74.0858 35.4554 73.6427 35.9522C73.1996 36.4491 72.5508 36.6975 71.6963 36.6975C70.8417 36.6975 70.1929 36.4491 69.7499 35.9522C69.3226 35.4554 69.109 34.8344 69.109 34.0891Z" fill="black"/>
</mask>
<g mask="url(#mask0_14_36)">
<path d="M49.2888 63.3522C48.1178 65.1077 46.48 66.4243 44.3753 67.302C42.2865 68.1632 39.8496 68.5938 37.0644 68.5938C34.2477 68.5938 31.7474 67.9064 29.5636 66.5319C27.3798 65.1408 25.6866 63.1701 24.484 60.6197C23.2971 58.0693 22.6879 55.1132 22.6562 51.7513V48.5965C22.6562 43.1479 23.8668 38.9249 26.2879 35.9274C28.7249 32.9299 32.143 31.4311 36.5422 31.4311C40.1502 31.4311 43.054 32.3999 45.2536 34.3375C47.4532 36.2586 48.7983 38.9912 49.2888 42.5352H44.7314C43.8769 37.7491 41.1551 35.356 36.5659 35.356C33.5118 35.356 31.1935 36.4821 29.6111 38.7345C28.0445 40.9702 27.2533 44.2162 27.2374 48.4723V51.4283C27.2374 55.4858 28.1236 58.7152 29.8959 61.1166C31.6683 63.5013 34.0657 64.6937 37.0882 64.6937C38.7972 64.6937 40.2926 64.4949 41.5744 64.0975C42.8562 63.7 43.9165 63.0293 44.7551 62.0853V53.9622H36.7559V50.087H49.2888V63.3522Z" fill="white"/>
<path d="M55.0569 54.4093C55.0569 51.7761 55.5474 49.408 56.5285 47.3047C57.5254 45.2015 58.9021 43.5785 60.6587 42.4358C62.431 41.2931 64.4487 40.7217 66.7115 40.7217C70.2088 40.7217 73.0334 41.9887 75.1856 44.5225C77.3535 47.0563 78.4375 50.4265 78.4375 54.6329V54.9559C78.4375 57.5725 77.9548 59.9241 76.9896 62.0108C76.0401 64.0809 74.6713 65.6956 72.8831 66.8549C71.1108 68.0141 69.0694 68.5938 66.759 68.5938C63.2777 68.5938 60.453 67.3269 58.2851 64.793C56.1329 62.2592 55.0569 58.9056 55.0569 54.7323V54.4093ZM59.4719 54.9559C59.4719 57.9368 60.1286 60.3298 61.4421 62.135C62.7713 63.9402 64.5436 64.8427 66.759 64.8427C68.9902 64.8427 70.7627 63.9319 72.076 62.1101C73.3895 60.2718 74.0462 57.7049 74.0462 54.4093C74.0462 51.4615 73.3737 49.0768 72.0286 47.255C70.6993 45.4167 68.927 44.4977 66.7115 44.4977C64.5436 44.4977 62.795 45.4002 61.4658 47.2054C60.1366 49.0105 59.4719 51.594 59.4719 54.9559ZM58.9021 34.0395C58.9021 33.2942 59.1159 32.6731 59.5431 32.1764C59.9862 31.663 60.635 31.4062 61.4895 31.4062C62.3441 31.4062 62.9928 31.663 63.436 32.1764C63.879 32.6731 64.1005 33.2942 64.1005 34.0395C64.1005 34.7846 63.879 35.4057 63.436 35.9025C62.9928 36.3993 62.3441 36.6478 61.4895 36.6478C60.635 36.6478 59.9862 36.3993 59.5431 35.9025C59.1159 35.4057 58.9021 34.7846 58.9021 34.0395ZM69.109 34.0891C69.109 33.3438 69.3226 32.7146 69.7499 32.2012C70.1929 31.6878 70.8417 31.4311 71.6963 31.4311C72.5508 31.4311 73.1996 31.6878 73.6427 32.2012C74.0858 32.7146 74.3073 33.3438 74.3073 34.0891C74.3073 34.8344 74.0858 35.4554 73.6427 35.9522C73.1996 36.4491 72.5508 36.6975 71.6963 36.6975C70.8417 36.6975 70.1929 36.4491 69.7499 35.9522C69.3226 35.4554 69.109 34.8344 69.109 34.0891Z" fill="white"/>
<path d="M49.2888 63.3522C48.1178 65.1077 46.48 66.4243 44.3753 67.302C42.2865 68.1632 39.8496 68.5938 37.0644 68.5938C34.2477 68.5938 31.7474 67.9064 29.5636 66.5319C27.3798 65.1408 25.6866 63.1701 24.484 60.6197C23.2971 58.0693 22.6879 55.1132 22.6562 51.7513V48.5965C22.6562 43.1479 23.8668 38.9249 26.2879 35.9274C28.7249 32.9299 32.143 31.4311 36.5422 31.4311C40.1502 31.4311 43.054 32.3999 45.2536 34.3375C47.4532 36.2586 48.7983 38.9912 49.2888 42.5352H44.7314C43.8769 37.7491 41.1551 35.356 36.5659 35.356C33.5118 35.356 31.1935 36.4821 29.6111 38.7345C28.0445 40.9702 27.2533 44.2162 27.2374 48.4723V51.4283C27.2374 55.4858 28.1236 58.7152 29.8959 61.1166C31.6683 63.5013 34.0657 64.6937 37.0882 64.6937C38.7972 64.6937 40.2926 64.4949 41.5744 64.0975C42.8562 63.7 43.9165 63.0293 44.7551 62.0853V53.9622H36.7559V50.087H49.2888V63.3522Z" fill="white" stroke="white" stroke-width="1.61905"/>
<path d="M55.0569 54.4093C55.0569 51.7761 55.5474 49.408 56.5285 47.3047C57.5254 45.2015 58.9021 43.5785 60.6587 42.4358C62.431 41.2931 64.4487 40.7217 66.7115 40.7217C70.2088 40.7217 73.0334 41.9887 75.1856 44.5225C77.3535 47.0563 78.4375 50.4265 78.4375 54.6329V54.9559C78.4375 57.5725 77.9548 59.9241 76.9896 62.0108C76.0401 64.0809 74.6713 65.6956 72.8831 66.8549C71.1108 68.0141 69.0694 68.5938 66.759 68.5938C63.2777 68.5938 60.453 67.3269 58.2851 64.793C56.1329 62.2592 55.0569 58.9056 55.0569 54.7323V54.4093ZM59.4719 54.9559C59.4719 57.9368 60.1286 60.3298 61.4421 62.135C62.7713 63.9402 64.5436 64.8427 66.759 64.8427C68.9902 64.8427 70.7627 63.9319 72.076 62.1101C73.3895 60.2718 74.0462 57.7049 74.0462 54.4093C74.0462 51.4615 73.3737 49.0768 72.0286 47.255C70.6993 45.4167 68.927 44.4977 66.7115 44.4977C64.5436 44.4977 62.795 45.4002 61.4658 47.2054C60.1366 49.0105 59.4719 51.594 59.4719 54.9559ZM58.9021 34.0395C58.9021 33.2942 59.1159 32.6731 59.5431 32.1764C59.9862 31.663 60.635 31.4062 61.4895 31.4062C62.3441 31.4062 62.9928 31.663 63.436 32.1764C63.879 32.6731 64.1005 33.2942 64.1005 34.0395C64.1005 34.7846 63.879 35.4057 63.436 35.9025C62.9928 36.3993 62.3441 36.6478 61.4895 36.6478C60.635 36.6478 59.9862 36.3993 59.5431 35.9025C59.1159 35.4057 58.9021 34.7846 58.9021 34.0395ZM69.109 34.0891C69.109 33.3438 69.3226 32.7146 69.7499 32.2012C70.1929 31.6878 70.8417 31.4311 71.6963 31.4311C72.5508 31.4311 73.1996 31.6878 73.6427 32.2012C74.0858 32.7146 74.3073 33.3438 74.3073 34.0891C74.3073 34.8344 74.0858 35.4554 73.6427 35.9522C73.1996 36.4491 72.5508 36.6975 71.6963 36.6975C70.8417 36.6975 70.1929 36.4491 69.7499 35.9522C69.3226 35.4554 69.109 34.8344 69.109 34.0891Z" stroke="white" stroke-width="1.61905"/>
</g>
<defs>
<linearGradient id="paint0_linear_14_36" x1="15" y1="94" x2="90.5" y2="1.99998" gradientUnits="userSpaceOnUse">
<stop stop-color="#3718C9"/>
<stop offset="0.33125" stop-color="#DA37D5"/>
<stop offset="1" stop-color="#FFD77B"/>
</linearGradient>
</defs>
</svg>
