<svg width="100" height="100" viewBox="0 0 100 100" fill="none" xmlns="http://www.w3.org/2000/svg">
<rect width="100" height="100" rx="30" fill="url(#paint0_linear_11_69)"/>
<path d="M28.2564 35.4486L50.0941 13.605L71.9317 35.4486L64.6514 42.7287L50.6463 28.7297L50.0941 28.1776L49.5417 28.7297L35.5366 42.7287L28.2564 35.4486ZM49.5417 71.2703L50.0941 71.8223L50.6463 71.2703L64.6514 57.2712L71.9317 64.5514L50.0941 86.395L28.2564 64.5514L35.5366 57.2712L49.5417 71.2703ZM13.6053 50.0255L20.8848 42.7567L28.1644 50.0255L20.8848 57.305L13.6053 50.0255ZM57.2795 50.0255L50 57.305L42.7205 50.0255L50 42.7567L57.2795 50.0255ZM79.1152 42.745L86.3952 50.025L79.1152 57.305L71.8352 50.025L79.1152 42.745Z" fill="white"/>
<defs>
<linearGradient id="paint0_linear_11_69" x1="15" y1="94" x2="90.5" y2="1.99998" gradientUnits="userSpaceOnUse">
<stop stop-color="#3718C9"/>
<stop offset="0.33125" stop-color="#DA37D5"/>
<stop offset="1" stop-color="#FFD77B"/>
</linearGradient>
</defs>
</svg>
