<svg width="100" height="100" viewBox="0 0 100 100" fill="none" xmlns="http://www.w3.org/2000/svg">
<rect width="100" height="100" rx="30" fill="url(#paint0_linear_14_32)"/>
<path d="M50.259 53.796L28.952 33.0787L29.4753 32.5466L29.4768 32.5451C34.8155 27.0696 42.1002 24 49.9352 24H49.9821C57.9046 24 65.5104 27.288 70.8013 32.9817L70.8016 32.982L71.2959 33.5131L50.259 53.796ZM24.0001 50.971V50.9698C24.0041 46.3279 25.3311 41.776 27.8365 37.8153L27.8365 37.8154L27.8413 37.8076L27.9761 37.5856L29.6665 39.2223C29.285 39.812 28.9382 40.4538 28.6923 41.1679C26.6596 46.5718 29.5793 52.5146 35.1697 54.4732V54.4733L35.1756 54.4752C38.3648 55.5482 41.7346 55.1204 44.4318 53.5177L49.8173 58.7751L50.1652 59.1147L50.5144 58.7766L56.727 52.7615C57.2836 53.0907 57.8907 53.3542 58.5183 53.5809V53.581L58.5261 53.5837C63.9762 55.4515 69.973 52.7026 71.9144 47.4424C73.027 44.4781 72.5855 41.387 71.0714 38.8731L72.3641 37.6216L72.5397 37.9011C72.5398 37.9013 72.54 37.9015 72.5401 37.9017C75.0215 41.8707 76.3328 46.4201 76.3333 51.057C76.2892 64.9934 64.5961 76.3333 50.1666 76.3333H50.1198C35.6903 76.3333 23.9543 64.9032 24.0001 50.971ZM32.7063 45.2627V45.2622C32.7054 44.4021 32.9421 43.5598 33.3885 42.8207L40.1664 49.343C39.4287 49.7808 38.5651 50.024 37.6404 50.024C34.9073 50.024 32.7063 47.8701 32.7063 45.2627ZM63.0178 49.352C62.1978 49.352 61.4613 49.1803 60.8022 48.8585L67.4313 42.4402C67.7707 43.0908 67.9519 43.8273 67.9519 44.5907C67.9519 47.1981 65.7509 49.352 63.0178 49.352Z" fill="white"/>
<defs>
<linearGradient id="paint0_linear_14_32" x1="15" y1="94" x2="90.5" y2="1.99998" gradientUnits="userSpaceOnUse">
<stop stop-color="#3718C9"/>
<stop offset="0.33125" stop-color="#DA37D5"/>
<stop offset="1" stop-color="#FFD77B"/>
</linearGradient>
</defs>
</svg>
