<svg width="100" height="100" viewBox="0 0 100 100" fill="none" xmlns="http://www.w3.org/2000/svg">
<rect width="100" height="100" rx="30" fill="url(#paint0_linear_14_5)"/>
<mask id="mask0_14_5" style="mask-type:alpha" maskUnits="userSpaceOnUse" x="20" y="20" width="60" height="60">
<path fill-rule="evenodd" clip-rule="evenodd" d="M79.3332 50C79.3332 66.2004 66.2002 79.3334 49.9998 79.3334C33.7995 79.3334 20.6665 66.2004 20.6665 50C20.6665 33.7997 33.7995 20.6667 49.9998 20.6667C66.2002 20.6667 79.3332 33.7997 79.3332 50ZM41.4482 57.7953C39.7016 57.7953 38.2706 57.3843 37.1551 56.5623C36.0543 55.7258 35.5039 54.5369 35.5039 52.9958C35.5039 52.6729 35.5406 52.2765 35.614 51.8068C35.8049 50.7501 36.0764 49.4805 36.4286 47.9981C37.4266 43.9618 40.0026 41.9437 44.1563 41.9437C45.2865 41.9437 46.2992 42.1344 47.1945 42.516C48.0899 42.8829 48.7944 43.4407 49.3081 44.1893C49.8217 44.9231 50.0787 45.8038 50.0787 46.8312C50.0787 47.1394 50.042 47.5284 49.9685 47.9981C49.7484 49.3043 49.4842 50.574 49.1759 51.8068C48.6623 53.8177 47.7743 55.3221 46.512 56.3202C45.2497 57.3035 43.5619 57.7953 41.4482 57.7953ZM41.7565 54.6249C42.5785 54.6249 43.2756 54.3828 43.8481 53.8984C44.4352 53.4141 44.8535 52.6729 45.1029 51.6748C45.4405 50.2951 45.6975 49.0915 45.8736 48.0641C45.9323 47.7559 45.9616 47.4404 45.9616 47.1174C45.9616 45.7818 45.2644 45.1139 43.8701 45.1139C43.0481 45.1139 42.3436 45.3561 41.7565 45.8404C41.1841 46.3249 40.7731 47.0661 40.5237 48.0641C40.2594 49.0475 39.9952 50.2511 39.7311 51.6748C39.6723 51.9683 39.643 52.2765 39.643 52.5994C39.643 53.9498 40.3475 54.6249 41.7565 54.6249ZM51.0917 57.5746C50.9303 57.5746 50.8054 57.5232 50.7174 57.4204C50.644 57.3029 50.622 57.1709 50.6514 57.0242L53.6896 42.7136C53.7189 42.5522 53.7997 42.42 53.9318 42.3173C54.0639 42.2146 54.2033 42.1632 54.3501 42.1632H60.2064C61.8356 42.1632 63.1419 42.5008 64.1252 43.1759C65.1234 43.8512 65.6224 44.8271 65.6224 46.1041C65.6224 46.471 65.5784 46.8527 65.4903 47.2489C65.1234 48.9368 64.3822 50.1845 63.2667 50.9917C62.1659 51.799 60.654 52.2026 58.7313 52.2026H55.7591L54.7464 57.0242C54.717 57.1856 54.6363 57.3176 54.5043 57.4204C54.3721 57.5232 54.2326 57.5746 54.086 57.5746H51.0917ZM58.8855 49.1644C59.5018 49.1644 60.0376 48.9955 60.4926 48.6579C60.9623 48.3204 61.2705 47.836 61.4173 47.2049C61.4613 46.9553 61.4834 46.7352 61.4834 46.5444C61.4834 46.1187 61.3586 45.7958 61.1091 45.5757C60.8595 45.3408 60.4339 45.2235 59.8321 45.2235H57.1901L56.3535 49.1644H58.8855Z" fill="white"/>
</mask>
<g mask="url(#mask0_14_5)">
<path fill-rule="evenodd" clip-rule="evenodd" d="M79.3332 50C79.3332 66.2004 66.2002 79.3334 49.9998 79.3334C33.7995 79.3334 20.6665 66.2004 20.6665 50C20.6665 33.7997 33.7995 20.6667 49.9998 20.6667C66.2002 20.6667 79.3332 33.7997 79.3332 50ZM41.4482 57.7953C39.7016 57.7953 38.2706 57.3843 37.1551 56.5623C36.0543 55.7258 35.5039 54.5369 35.5039 52.9958C35.5039 52.6729 35.5406 52.2765 35.614 51.8068C35.8049 50.7501 36.0764 49.4805 36.4286 47.9981C37.4266 43.9618 40.0026 41.9437 44.1563 41.9437C45.2865 41.9437 46.2992 42.1344 47.1945 42.516C48.0899 42.8829 48.7944 43.4407 49.3081 44.1893C49.8217 44.9231 50.0787 45.8038 50.0787 46.8312C50.0787 47.1394 50.042 47.5284 49.9685 47.9981C49.7484 49.3043 49.4842 50.574 49.1759 51.8068C48.6623 53.8177 47.7743 55.3221 46.512 56.3202C45.2497 57.3035 43.5619 57.7953 41.4482 57.7953ZM41.7565 54.6249C42.5785 54.6249 43.2756 54.3828 43.8481 53.8984C44.4352 53.4141 44.8535 52.6729 45.1029 51.6748C45.4405 50.2951 45.6975 49.0915 45.8736 48.0641C45.9323 47.7559 45.9616 47.4404 45.9616 47.1174C45.9616 45.7818 45.2644 45.1139 43.8701 45.1139C43.0481 45.1139 42.3436 45.3561 41.7565 45.8404C41.1841 46.3249 40.7731 47.0661 40.5237 48.0641C40.2594 49.0475 39.9952 50.2511 39.7311 51.6748C39.6723 51.9683 39.643 52.2765 39.643 52.5994C39.643 53.9498 40.3475 54.6249 41.7565 54.6249ZM51.0917 57.5746C50.9303 57.5746 50.8054 57.5232 50.7174 57.4204C50.644 57.3029 50.622 57.1709 50.6514 57.0242L53.6896 42.7136C53.7189 42.5522 53.7997 42.42 53.9318 42.3173C54.0639 42.2146 54.2033 42.1632 54.3501 42.1632H60.2064C61.8356 42.1632 63.1419 42.5008 64.1252 43.1759C65.1234 43.8512 65.6224 44.8271 65.6224 46.1041C65.6224 46.471 65.5784 46.8527 65.4903 47.2489C65.1234 48.9368 64.3822 50.1845 63.2667 50.9917C62.1659 51.799 60.654 52.2026 58.7313 52.2026H55.7591L54.7464 57.0242C54.717 57.1856 54.6363 57.3176 54.5043 57.4204C54.3721 57.5232 54.2326 57.5746 54.086 57.5746H51.0917ZM58.8855 49.1644C59.5018 49.1644 60.0376 48.9955 60.4926 48.6579C60.9623 48.3204 61.2705 47.836 61.4173 47.2049C61.4613 46.9553 61.4834 46.7352 61.4834 46.5444C61.4834 46.1187 61.3586 45.7958 61.1091 45.5757C60.8595 45.3408 60.4339 45.2235 59.8321 45.2235H57.1901L56.3535 49.1644H58.8855Z" fill="white"/>
</g>
<defs>
<linearGradient id="paint0_linear_14_5" x1="15" y1="94" x2="90.5" y2="1.99998" gradientUnits="userSpaceOnUse">
<stop stop-color="#3718C9"/>
<stop offset="0.33125" stop-color="#DA37D5"/>
<stop offset="1" stop-color="#FFD77B"/>
</linearGradient>
</defs>
</svg>
