<svg width="100" height="100" viewBox="0 0 100 100" fill="none" xmlns="http://www.w3.org/2000/svg">
<rect width="100" height="100" rx="30" fill="url(#paint0_linear_14_8)"/>
<path d="M52.9688 39.2168L47.0312 42.4887V35.8642V35.4001L46.6237 35.1781L33.4987 28.0293L33.125 27.8259L32.7513 28.0293L19.6262 35.1781L19.2188 35.4001V35.8642V49.92V50.3842L19.6262 50.6061L32.7513 57.7548L33.125 57.9584L33.4987 57.7548L65.4275 40.3643C66.3272 39.8743 67.4228 39.8743 68.3225 40.3643L85.1975 49.5556C86.1416 50.0698 86.7188 51.0397 86.7188 52.0833V70.4656C86.7188 71.5093 86.1416 72.4792 85.1975 72.9934L68.3225 82.1845C67.4228 82.6745 66.3272 82.6745 65.4275 82.1845L48.5525 72.9934C47.6084 72.4792 47.0312 71.5093 47.0312 70.4656V64.9498L52.9688 61.6779V68.3023V68.7665L53.3763 68.9884L66.5012 76.1372L66.875 76.3408L67.2487 76.1372L80.3737 68.9884L80.7812 68.7665V68.3023V54.2465V53.7825L80.3737 53.5604L67.2487 46.4117L66.875 46.2083L66.5012 46.4117L34.5725 63.8022C33.6728 64.2922 32.5772 64.2922 31.6775 63.8022L14.8025 54.6111C13.8584 54.0968 13.2812 53.127 13.2812 52.0833V33.7009C13.2812 32.6573 13.8584 31.6875 14.8025 31.1733L31.6775 21.982C32.5772 21.492 33.6728 21.492 34.5725 21.982L51.4475 31.1733C52.3916 31.6875 52.9688 32.6573 52.9688 33.7009V39.2168Z" fill="white" stroke="white"/>
<defs>
<linearGradient id="paint0_linear_14_8" x1="15" y1="94" x2="90.5" y2="1.99998" gradientUnits="userSpaceOnUse">
<stop stop-color="#3718C9"/>
<stop offset="0.33125" stop-color="#DA37D5"/>
<stop offset="1" stop-color="#FFD77B"/>
</linearGradient>
</defs>
</svg>
